# xmcd
#
# Track frame offsets: 
#        150
#        21041
#        39680
#        58274
#        71581
#        86929
#        101897
#        118548
#        130950
#        144980
#        162293
#        176415
#        195263
#        212872
#        225151
#        234758
#        253006
#        278843
#        294792
#        314227
#        322266
#        346003
#
# Disc length: 4763 seconds
#
# Revision: 0
# Processed by: cddbd v1.5.2PL0 Copyright (c) Steve Scherf et al.
# Submitted via: ExactAudioCopyFreeDBPlugin 1.0
#
DISCID=42129916
DTITLE=James Last - The very best of
DYEAR=2019
DGENRE=No, thanks.
TTITLE0=Violins In Love
TTITLE1=James Last (feat. R. Clayderman) - Summer Serenade
TTITLE2=Fantasy
TTITLE3=Face In A Crowd (Choral)
TTITLE4=Der Landarzt
TTITLE5=Besinnung
TTITLE6=Country Train
TTITLE7=Happy Music
TTITLE8=Beachrunner
TTITLE9=Sorry Elton
TTITLE10=Music From Across The Way
TTITLE11=Der Kapitän
TTITLE12=Rosita
TTITLE13=Bella Italia
TTITLE14=Happy Luxemburg
TTITLE15=Grenzenloses Himmelblau
TTITLE16=James Last (feat. R. Clayderman) - Maracaibo
TTITLE17=Happy Heart
TTITLE18=No Words
TTITLE19=Lorentz and Söhne
TTITLE20=Zwischen Tag und Nacht
TTITLE21=Games That Lovers Play
EXTD=
EXTT0=
EXTT1=
EXTT2=
EXTT3=
EXTT4=
EXTT5=
EXTT6=
EXTT7=
EXTT8=
EXTT9=
EXTT10=
EXTT11=
EXTT12=
EXTT13=
EXTT14=
EXTT15=
EXTT16=
EXTT17=
EXTT18=
EXTT19=
EXTT20=
EXTT21=
PLAYORDER=
